<?xml version="1.0" standalone="no"?>
<!DOCTYPE svg PUBLIC "-//W3C//DTD SVG 20010904//EN"
 "http://www.w3.org/TR/2001/REC-SVG-20010904/DTD/svg10.dtd">
<svg version="1.0" xmlns="http://www.w3.org/2000/svg"
 width="70.000000pt" height="70.000000pt" viewBox="0 0 70.000000 70.000000"
 preserveAspectRatio="xMidYMid meet">
<metadata>
Created by potrace 1.14, written by Peter Selinger 2001-2017
</metadata>
<g transform="translate(0.000000,70.000000) scale(0.100000,-0.100000)"
fill="#000000" stroke="none">
<path d="M253 686 c-103 -34 -176 -98 -222 -196 -22 -46 -26 -69 -26 -140 0
-76 4 -93 33 -152 38 -77 92 -130 171 -167 47 -22 70 -26 141 -26 76 0 93 4
152 33 77 37 128 90 167 172 22 46 26 69 26 140 0 71 -4 94 -26 141 -58 124
-166 197 -300 205 -47 2 -90 -1 -116 -10z m-33 -291 c0 -10 -70 -85 -80 -85
-5 0 -6 167 -1 178 2 5 81 -84 81 -93z m148 -10 c115 -117 113 -107 45 -172
-19 -18 -39 -33 -45 -33 -7 0 -33 22 -60 50 -37 38 -48 58 -49 82 0 18 -1 66
-2 106 -1 39 0 72 2 72 3 0 51 -47 109 -105z m242 29 c0 -3 -26 -32 -58 -65
l-58 -59 -48 49 c-26 27 -44 51 -39 54 4 2 42 8 83 11 41 4 76 8 77 10 5 4 43
4 43 0z m-375 -145 c1 -43 -1 -79 -4 -79 -10 0 -81 74 -81 84 0 14 72 87 79
80 3 -3 6 -41 6 -85z"/>
</g>
</svg>
